<svg width="40" height="40" viewBox="0 0 40 40" fill="none" xmlns="http://www.w3.org/2000/svg">
  <g>
    <!-- Blue S logo design based on the provided image -->
    <path d="M20 4C11.163 4 4 11.163 4 20C4 28.837 11.163 36 20 36C28.837 36 36 28.837 36 20C36 11.163 28.837 4 20 4Z" fill="#3B82F6" fill-opacity="0.1"/>
    
    <!-- Main S shape -->
    <path d="M12 14C12 11.791 13.791 10 16 10H24C26.209 10 28 11.791 28 14C28 16.209 26.209 18 24 18H20C17.791 18 16 19.791 16 22C16 24.209 17.791 26 20 26H24C26.209 26 28 27.791 28 30C28 32.209 26.209 34 24 34H16C13.791 34 12 32.209 12 30" 
          stroke="#3B82F6" 
          stroke-width="3" 
          stroke-linecap="round" 
          fill="none"/>
    
    <!-- Inner design elements -->
    <path d="M16 14C16 12.895 16.895 12 18 12H22C23.105 12 24 12.895 24 14C24 15.105 23.105 16 22 16H20C18.895 16 18 16.895 18 18C18 19.105 18.895 20 20 20H22C23.105 20 24 20.895 24 22C24 23.105 23.105 24 22 24H18C16.895 24 16 23.105 16 22" 
          stroke="#60A5FA" 
          stroke-width="1.5" 
          stroke-linecap="round" 
          fill="none"/>
  </g>
</svg>