<svg width="40" height="40" viewBox="0 0 40 40" fill="none" xmlns="http://www.w3.org/2000/svg">
  <g>
    <!-- Refined blue S logo design matching the provided image -->
    <rect width="40" height="40" rx="8" fill="#FFFFFF" stroke="#E0F2FE" stroke-width="1"/>
    
    <!-- Main S shape with more accurate curves -->
    <path d="M12 15C12 12.791 13.791 11 16 11H24C26.209 11 28 12.791 28 15C28 17.209 26.209 19 24 19H18C15.791 19 14 20.791 14 23C14 25.209 15.791 27 18 27H24C26.209 27 28 28.791 28 31C28 33.209 26.209 35 24 35H16C13.791 35 12 33.209 12 31" 
          stroke="#3B82F6" 
          stroke-width="2.5" 
          stroke-linecap="round" 
          fill="none"/>
    
    <!-- Inner flowing design -->
    <path d="M16 15C16 13.895 16.895 13 18 13H22C23.105 13 24 13.895 24 15C24 16.105 23.105 17 22 17H20C18.895 17 18 17.895 18 19C18 20.105 18.895 21 20 21H22C23.105 21 24 21.895 24 23C24 24.105 23.105 25 22 25H18C16.895 25 16 24.105 16 23" 
          stroke="#60A5FA" 
          stroke-width="1.5" 
          stroke-linecap="round" 
          fill="none"
          opacity="0.7"/>
    
    <!-- Subtle gradient accent -->
    <circle cx="20" cy="20" r="18" fill="url(#gradient)" opacity="0.1"/>
    
    <defs>
      <linearGradient id="gradient" x1="0%" y1="0%" x2="100%" y2="100%">
        <stop offset="0%" style="stop-color:#3B82F6;stop-opacity:1" />
        <stop offset="100%" style="stop-color:#60A5FA;stop-opacity:1" />
      </linearGradient>
    </defs>
  </g>
</svg>